<?xml version="1.0" encoding="UTF-8"?><svg id="Calque_2" xmlns="http://www.w3.org/2000/svg" xmlns:xlink="http://www.w3.org/1999/xlink" viewBox="0 0 299.22 142.31"><defs><style>.cls-1,.cls-2{fill:#ef4444;}.cls-3{fill:url(#Dégradé_sans_nom_121-3);}.cls-4{fill:url(#Dégradé_sans_nom_121-4);}.cls-5{fill:url(#Dégradé_sans_nom_121-2);}.cls-6{fill:url(#Dégradé_sans_nom_121-5);}.cls-7{fill:url(#Dégradé_sans_nom_121-6);}.cls-8{fill:url(#Dégradé_sans_nom_91);}.cls-2{filter:url(#drop-shadow-1);}.cls-9{fill:url(#Dégradé_sans_nom_121);}.cls-10{fill:url(#Dégradé_sans_nom_101);}.cls-11{fill:url(#Dégradé_sans_nom_109);}</style><linearGradient id="Dégradé_sans_nom_101" x1="9.15" y1="94.57" x2="69.6" y2="83.91" gradientTransform="matrix(1, 0, 0, 1, 0, 0)" gradientUnits="userSpaceOnUse"><stop offset=".11" stop-color="#6d28d9"/><stop offset=".77" stop-color="#5b21b6"/></linearGradient><linearGradient id="Dégradé_sans_nom_91" x1="28.12" y1="41.41" x2="64.64" y2="54.7" gradientTransform="matrix(1, 0, 0, 1, 0, 0)" gradientUnits="userSpaceOnUse"><stop offset=".18" stop-color="#6d28d9"/><stop offset=".72" stop-color="#5b21b6"/></linearGradient><linearGradient id="Dégradé_sans_nom_109" x1="62.15" y1="156.09" x2="110.55" y2="107.69" gradientTransform="matrix(1, 0, 0, 1, 0, 0)" gradientUnits="userSpaceOnUse"><stop offset="0" stop-color="#6d28d9"/><stop offset=".61" stop-color="#5b21b6"/></linearGradient><linearGradient id="Dégradé_sans_nom_121" x1="48.29" y1="71.47" x2="175.56" y2="71.47" gradientTransform="matrix(1, 0, 0, 1, 0, 0)" gradientUnits="userSpaceOnUse"><stop offset="0" stop-color="#6d28d9"/><stop offset="1" stop-color="#5b21b6"/></linearGradient><filter id="drop-shadow-1" filterUnits="userSpaceOnUse"><feOffset dx="0" dy="0"/><feGaussianBlur result="blur" stdDeviation="2"/><feFlood flood-color="#000" flood-opacity=".25"/><feComposite in2="blur" operator="in"/><feComposite in="SourceGraphic"/></filter><linearGradient id="Dégradé_sans_nom_121-2" x1="188.83" y1="109.97" x2="227.79" y2="109.97" xlink:href="#Dégradé_sans_nom_121"/><linearGradient id="Dégradé_sans_nom_121-3" x1="239.89" y1="110.75" x2="277.72" y2="110.75" xlink:href="#Dégradé_sans_nom_121"/><linearGradient id="Dégradé_sans_nom_121-4" x1="186.38" y1="51.06" x2="230.24" y2="51.06" xlink:href="#Dégradé_sans_nom_121"/><linearGradient id="Dégradé_sans_nom_121-5" x1="286.37" y1="42.02" x2="299.22" y2="42.02" xlink:href="#Dégradé_sans_nom_121"/><linearGradient id="Dégradé_sans_nom_121-6" x1="240.08" y1="51.15" x2="277.52" y2="51.15" xlink:href="#Dégradé_sans_nom_121"/></defs><g id="Calque_1-2"><g><rect class="cls-10" x="8.38" y="78.82" width="62" height="20.84" rx="10.42" ry="10.42"/><circle class="cls-1" cx="26.38" cy="131.89" r="10.42"/><rect class="cls-8" x="26.38" y="37.63" width="40.01" height="20.84" rx="10.42" ry="10.42"/><rect class="cls-11" x="42.26" y="121.48" width="88.17" height="20.84" rx="10.42" ry="10.42"/><path class="cls-9" d="M48.29,71.35C48.29,29.9,79.37,.63,123.14,.63c19.63,0,36.37,5.91,48.12,17.24,6.91,6.67,5.21,18.21-3.09,23.05l-.04,.02c-5.65,3.3-12.83,2.48-17.54-2.07-7.67-7.39-17.32-10.8-27.71-10.8-23.83,0-41.96,16.58-41.96,43.25s18.13,43.25,41.96,43.25c10.39,0,20.04-3.41,27.71-10.8,4.72-4.54,11.89-5.36,17.54-2.07h0c8.29,4.83,10,16.37,3.1,23.04-11.75,11.36-28.48,17.54-48.09,17.54-43.77,0-74.85-29.53-74.85-70.97Z"/><path class="cls-2" d="M178.8,26.76c-3.04,4.06-12.45,5.5-17.38,5.99-1.78,.18-3.39-1.03-3.72-2.78-.92-4.86-2.18-14.3,.86-18.36,4.19-5.59,12.11-6.72,17.69-2.54,5.59,4.19,6.72,12.11,2.54,17.69Z"/><circle class="cls-1" cx="10.42" cy="48.05" r="10.42"/></g><path class="cls-5" d="M227.79,106.23v25.14h-9.48v-5.22c-2.41,3.69-7.07,5.78-13.5,5.78-9.8,0-15.99-5.38-15.99-12.85s4.82-12.77,17.83-12.77h11.09v-.64c0-5.86-3.54-9.32-10.68-9.32-4.82,0-9.8,1.61-13.01,4.26l-3.94-7.31c4.58-3.53,11.25-5.3,18.15-5.3,12.37,0,19.52,5.86,19.52,18.23Zm-10.04,11.73v-4.98h-10.36c-6.83,0-8.68,2.57-8.68,5.7,0,3.61,3.05,5.94,8.19,5.94s9.16-2.25,10.84-6.67Z"/><path class="cls-3" d="M249.39,119.77v12.16h-9.5l.13-42.38h18.94c11.14,0,18.04,5.69,18.04,15.07,0,6.42-3.3,11.73-9.06,13.97l9.78,13.33h-9.84l-8.94-12.16m-.35-23.55h-9.2v16.89h9.2c6.9,0,9.35-3.12,9.35-8.44s-2.45-8.44-9.35-8.44Z"/><path class="cls-4" d="M230.08,54.23h-33.66c1.2,6.27,6.43,10.28,13.9,10.28,4.82,0,8.6-1.53,11.65-4.66l5.38,6.18c-3.86,4.58-9.88,6.99-17.27,6.99-14.38,0-23.7-9.24-23.7-22.01s9.4-21.93,22.17-21.93,21.69,8.76,21.69,22.17c0,.8-.08,2.01-.16,2.97Zm-33.74-6.67h24.34c-.8-6.19-5.54-10.44-12.13-10.44s-11.25,4.18-12.21,10.44Z"/><path class="cls-6" d="M286.37,17.04c0-3.37,2.73-6.02,6.43-6.02s6.43,2.49,6.43,5.78c0,3.53-2.65,6.27-6.43,6.27s-6.43-2.65-6.43-6.02Zm1.37,13.09h10.04v42.9h-10.04V30.13Z"/><path class="cls-7" d="M240.08,68.23l3.84-7.6c3.76,2.48,9.52,4.24,14.88,4.24,6.32,0,8.96-1.76,8.96-4.72,0-8.16-26.4-.48-26.4-17.52,0-8.08,7.28-13.36,18.8-13.36,5.68,0,12.16,1.36,16,3.68l-3.84,7.6c-4.08-2.4-8.16-3.2-12.24-3.2-6.08,0-8.96,2-8.96,4.8,0,8.64,26.4,.96,26.4,17.68,0,8-7.36,13.2-19.36,13.2-7.12,0-14.24-2.08-18.08-4.8Z"/></g></svg>