<svg xmlns="http://www.w3.org/2000/svg" xmlns:xlink="http://www.w3.org/1999/xlink" width="275.109" height="130.828" viewBox="0 0 275.109 130.828">
  <defs>
    <linearGradient id="linear-gradient" y1="0.335" x2="0.987" y2="0.244" gradientUnits="objectBoundingBox">
      <stop offset="0" stop-color="#4f46e5"/>
      <stop offset="1" stop-color="#3730a3"/>
    </linearGradient>
    <linearGradient id="linear-gradient-2" x1="0.043" y1="0.181" x2="0.956" y2="0.819" xlink:href="#linear-gradient"/>
    <linearGradient id="linear-gradient-3" x1="0.226" y1="1.661" x2="0.775" y2="-0.662" xlink:href="#linear-gradient"/>
    <linearGradient id="linear-gradient-4" y1="0.5" x2="1" y2="0.5" gradientUnits="objectBoundingBox">
      <stop offset="0" stop-color="#4f46e5"/>
      <stop offset="1" stop-color="#4f46e5"/>
    </linearGradient>
    <filter id="Tracé_2" x="138.014" y="0" width="34.682" height="36.106" filterUnits="userSpaceOnUse">
      <feOffset input="SourceAlpha"/>
      <feGaussianBlur stdDeviation="2" result="blur"/>
      <feFlood flood-opacity="0.251"/>
      <feComposite operator="in" in2="blur"/>
      <feComposite in="SourceGraphic"/>
    </filter>
  </defs>
  <g id="Groupe_2096" data-name="Groupe 2096" transform="translate(-49.946 -151.957)">
    <g id="Groupe_2095" data-name="Groupe 2095">
      <rect id="Rectangle_1" data-name="Rectangle 1" width="57.002" height="19.16" rx="9.58" transform="translate(57.65 224.403)" fill="url(#linear-gradient)"/>
      <circle id="Ellipse_1" data-name="Ellipse 1" cx="9.58" cy="9.58" r="9.58" transform="translate(64.619 263.615)" fill="#3730a3"/>
      <rect id="Rectangle_2" data-name="Rectangle 2" width="36.785" height="19.16" rx="9.58" transform="translate(74.199 186.533)" fill="url(#linear-gradient-2)"/>
      <rect id="Rectangle_3" data-name="Rectangle 3" width="81.063" height="19.16" rx="9.58" transform="translate(88.799 263.624)" fill="url(#linear-gradient-3)"/>
      <path id="Tracé_1" data-name="Tracé 1" d="M48.29,65.649C48.29,27.541,76.865.63,117.106.63c18.048,0,33.438,5.434,44.241,15.85,6.353,6.132,4.79,16.742-2.841,21.192l-.037.018a13.454,13.454,0,0,1-16.126-1.9,35.785,35.785,0,0,0-25.476-9.929C94.958,25.858,78.29,41.1,78.29,65.622s16.669,39.764,38.578,39.764a35.785,35.785,0,0,0,25.476-9.929,13.483,13.483,0,0,1,16.126-1.9h0c7.622,4.441,9.194,15.05,2.85,21.183-10.8,10.444-26.184,16.126-44.213,16.126-40.242,0-68.816-27.15-68.816-65.249Z" transform="translate(46.053 151.886)" fill="url(#linear-gradient-4)"/>
      <g transform="matrix(1, 0, 0, 1, 49.95, 151.96)" filter="url(#Tracé_2)">
        <path id="Tracé_2-2" data-name="Tracé 2" d="M177.014,25.131c-2.795,3.733-11.446,5.057-15.979,5.507a3.154,3.154,0,0,1-3.42-2.556c-.846-4.468-2-13.147.791-16.88A11.618,11.618,0,1,1,177,25.131Z" transform="translate(-12.63 -0.55)" fill="#3730a3"/>
      </g>
      <circle id="Ellipse_2" data-name="Ellipse 2" cx="9.58" cy="9.58" r="9.58" transform="translate(49.946 186.533)" fill="#3730a3"/>
      <path id="Tracé_3" data-name="Tracé 3" d="M224.649,104.76v23.113h-8.716v-4.8c-2.216,3.393-6.5,5.314-12.412,5.314-9.01,0-14.7-4.946-14.7-11.814s4.431-11.741,16.393-11.741h10.2v-.588c0-5.388-3.255-8.569-9.819-8.569a19.515,19.515,0,0,0-11.961,3.917l-3.622-6.721C194.217,89.627,200.349,88,206.693,88c11.373,0,17.946,5.388,17.946,16.76Zm-9.231,10.784v-4.579h-9.525c-6.279,0-7.98,2.363-7.98,5.241,0,3.319,2.8,5.461,7.53,5.461s8.422-2.069,9.966-6.132Z" transform="translate(34.725 144.843)" fill="#4f46e5"/>
      <path id="Tracé_4" data-name="Tracé 4" d="M248.624,117.334v11.18H239.89l.12-38.964h17.413c10.242,0,16.586,5.231,16.586,13.855,0,5.9-3.034,10.784-8.33,12.844L274.67,128.5h-9.047l-8.219-11.18m-.322-21.652h-8.458V111.2h8.458c6.344,0,8.6-2.868,8.6-7.76s-2.253-7.76-8.6-7.76Z" transform="translate(30.608 144.718)" fill="#4f46e5"/>
      <path id="Tracé_5" data-name="Tracé 5" d="M226.557,52.2H195.611c1.1,5.765,5.912,9.451,12.779,9.451A14.144,14.144,0,0,0,219.1,57.37l4.946,5.682c-3.549,4.211-9.084,6.427-15.878,6.427-13.221,0-21.79-8.5-21.79-20.236s8.642-20.162,20.383-20.162S226.7,37.134,226.7,49.463c0,.736-.074,1.848-.147,2.731Zm-31.02-6.132h22.378c-.736-5.691-5.093-9.6-11.152-9.6a10.847,10.847,0,0,0-11.226,9.6Z" transform="translate(34.921 149.593)" fill="#4f46e5"/>
      <path id="Tracé_6" data-name="Tracé 6" d="M286.37,16.555a5.622,5.622,0,0,1,5.912-5.535c3.4,0,5.912,2.289,5.912,5.314a5.674,5.674,0,0,1-5.912,5.765,5.579,5.579,0,0,1-5.912-5.535Zm1.26,12.035h9.231V68.031H287.63V28.59Z" transform="translate(26.861 151.048)" fill="#4f46e5"/>
      <path id="Tracé_7" data-name="Tracé 7" d="M240.08,65.089l3.53-6.987A26.427,26.427,0,0,0,257.291,62c5.811,0,8.238-1.618,8.238-4.34,0-7.5-24.272-.441-24.272-16.108,0-7.429,6.693-12.283,17.285-12.283,5.222,0,11.18,1.25,14.71,3.383l-3.531,6.987A21.5,21.5,0,0,0,258.468,36.7c-5.59,0-8.238,1.839-8.238,4.413,0,7.944,24.272.883,24.272,16.255,0,7.355-6.767,12.136-17.8,12.136-6.546,0-13.092-1.912-16.623-4.413Z" transform="translate(30.592 149.577)" fill="#4f46e5"/>
    </g>
  </g>
</svg>
